<?xml version="1.0" encoding="UTF-8"?>
<svg id="Layer_1" data-name="Layer 1" xmlns="http://www.w3.org/2000/svg" version="1.1" viewBox="0 0 936.1 226.2">
  <defs>
    <style>
      .cls-1 {
        fill: #000f9f;
        stroke-width: 0px;
      }
    </style>
  </defs>
  <g>
    <path class="cls-1" d="M139.4,0C76.9,0,26.3,50.6,26.3,113.1s50.6,113.1,113.1,113.1,113.1-50.6,113.1-113.1S201.8,0,139.4,0M212.4,113.1c0,40.3-32.7,73-73,73s-73-32.7-73-73,32.7-73,73-73c40.3,0,73,32.7,73,73"/>
    <rect class="cls-1" y="90.2" width="278.3" height="45.7"/>
  </g>
  <g>
    <polygon class="cls-1" points="369.9 54.7 369.9 106.2 354.6 106.2 354.6 54.7 337 54.7 337 41.2 387.4 41.2 387.4 54.7 369.9 54.7"/>
    <path class="cls-1" d="M410.1,53.4v15.3h5.3c2.8,0,5-.7,6.7-2.2,1.7-1.5,2.5-3.4,2.5-5.7,0-2.1-.8-3.8-2.3-5.2-1.5-1.4-3.6-2.1-6.3-2.1h-5.9ZM429.1,106.2l-16.1-24.6h-3v24.6h-15.3V41.2h22.1c7.3,0,12.9,1.8,16.9,5.3,4,3.5,6,8.3,6,14.5s-1,7.6-3.1,10.6c-2,3-5,5.3-8.8,6.8l18.5,27.8h-17.3Z"/>
    <path class="cls-1" d="M480.7,59.1l-7.2,22.2h14.6l-7.4-22.2ZM496.3,106.2l-3.9-11.8h-23.2l-3.8,11.8h-16.5l24-65h15.5l24.7,65h-16.7Z"/>
    <polygon class="cls-1" points="563.7 106.2 535.1 66 535.1 106.2 519.8 106.2 519.8 41.2 535.2 41.2 564.2 81.9 564.2 41.2 579.5 41.2 579.5 106.2 563.7 106.2"/>
    <path class="cls-1" d="M587.7,93.3l11.5-6.9c2.3,5.3,5.9,7.9,10.8,7.9s4.7-.6,6.3-1.8c1.5-1.2,2.3-2.7,2.4-4.7,0-1.7-.6-3.1-1.8-4.4-1.2-1.2-4.5-3-9.9-5.5-6.3-2.8-10.6-5.7-12.9-8.7-2.3-3-3.4-6.6-3.4-10.9s2-9.6,6.1-13.2c4-3.6,9.2-5.4,15.4-5.4,9,0,15.6,3.5,19.6,10.6l-10.6,6.8c-2-3.4-5-5.1-9-5.1s-3.7.5-5,1.6c-1.3,1-1.9,2.3-1.9,3.9s.6,3,2,4.1c1.3,1.1,4.2,2.7,8.7,4.8,6.6,3.1,11.3,6.2,13.9,9.3,2.7,3.1,4.1,7,4.1,11.6s-2.3,10.5-7,14.2c-4.6,3.7-10.4,5.6-17.2,5.6-10,0-17.4-4.7-22.1-14.1"/>
    <path class="cls-1" d="M657.8,53.7v18.8h4.8c3.7,0,6.4-.8,8.3-2.4,1.9-1.6,2.8-3.9,2.8-6.9s-.9-5.4-2.8-7c-1.9-1.6-4.7-2.4-8.3-2.4h-4.8ZM657.8,85v21.3h-15.3V41.2h21.7c7.8,0,13.9,1.9,18.3,5.9,4.4,3.9,6.6,9.2,6.6,15.8s-2.3,12.1-7,16.1c-4.6,4-10.8,5.9-18.5,5.9h-5.9Z"/>
    <path class="cls-1" d="M729.9,93.8c5.5,0,10.1-1.9,13.8-5.7,3.7-3.8,5.5-8.6,5.5-14.3s-1.8-10.5-5.5-14.3c-3.7-3.8-8.3-5.7-13.8-5.7s-10.1,1.9-13.8,5.7c-3.7,3.8-5.5,8.6-5.5,14.2s1.9,10.4,5.5,14.3c3.7,3.9,8.3,5.8,13.8,5.8M729.9,107.4c-9.9,0-18-3.2-24.6-9.7-6.6-6.5-9.9-14.5-9.9-24,0-9.5,3.3-17.5,9.9-24,6.6-6.5,14.8-9.7,24.7-9.8,9.8,0,18.1,3.2,24.7,9.7,6.6,6.5,10,14.5,10,24,0,9.6-3.3,17.6-10,24.1-6.6,6.4-14.9,9.7-24.7,9.7"/>
    <path class="cls-1" d="M788.5,53.4v15.3h5.2c2.8,0,5-.7,6.7-2.2,1.6-1.5,2.5-3.4,2.5-5.7,0-2.1-.8-3.8-2.3-5.2-1.5-1.4-3.6-2.1-6.3-2.1h-5.8ZM807.5,106.2l-16.1-24.6h-2.9v24.6h-15.3V41.2h22.1c7.3,0,12.9,1.8,16.9,5.3,4,3.5,6,8.3,6,14.5s-1,7.6-3.1,10.6c-2.1,3-5,5.3-8.8,6.8l18.5,27.8h-17.3Z"/>
    <polygon class="cls-1" points="860.6 54.7 860.6 106.2 845.3 106.2 845.3 54.7 827.8 54.7 827.8 41.2 878.2 41.2 878.2 54.7 860.6 54.7"/>
    <polygon class="cls-1" points="352.2 135.6 352.2 146.7 372.7 146.7 372.7 159.9 352.2 159.9 352.2 187.6 336.9 187.6 336.9 122.6 378 122.6 378 135.6 352.2 135.6"/>
    <path class="cls-1" d="M417.9,175.1c5.5,0,10.1-1.9,13.8-5.8,3.7-3.8,5.5-8.6,5.5-14.3s-1.9-10.5-5.5-14.3c-3.7-3.8-8.3-5.7-13.8-5.7s-10.1,1.9-13.8,5.7c-3.7,3.8-5.5,8.6-5.5,14.2s1.9,10.4,5.5,14.3c3.7,3.9,8.3,5.8,13.8,5.8M417.9,188.8c-9.8,0-18.1-3.2-24.7-9.8-6.6-6.5-9.9-14.5-9.9-24,0-9.5,3.3-17.5,9.9-24,6.6-6.5,14.9-9.7,24.7-9.8,9.8,0,18.1,3.2,24.7,9.7,6.7,6.5,10,14.5,10,24,0,9.6-3.4,17.6-10,24.1-6.6,6.4-14.9,9.7-24.7,9.7"/>
    <path class="cls-1" d="M476.5,134.8v15.3h5.3c2.8,0,5-.7,6.7-2.2,1.7-1.5,2.5-3.4,2.5-5.7,0-2.1-.8-3.8-2.3-5.2-1.5-1.4-3.6-2.1-6.3-2.1h-5.8ZM495.5,187.6l-16.1-24.6h-2.9v24.6h-15.3v-65h22.1c7.2,0,12.9,1.8,16.9,5.3,4,3.5,6,8.3,6,14.5s-1,7.6-3.1,10.6c-2.1,3-5,5.3-8.8,6.8l18.5,27.8h-17.3Z"/>
    <polygon class="cls-1" points="540 187.6 540 122.6 555.3 122.6 555.3 174 580.3 174 580.3 187.6 540 187.6"/>
    <path class="cls-1" d="M620.1,175.1c5.5,0,10.1-1.9,13.8-5.8,3.7-3.8,5.5-8.6,5.5-14.3s-1.8-10.5-5.5-14.3c-3.7-3.8-8.3-5.7-13.8-5.7s-10.1,1.9-13.8,5.7c-3.7,3.8-5.5,8.6-5.5,14.2s1.9,10.4,5.5,14.3c3.7,3.9,8.3,5.8,13.8,5.8M620.1,188.8c-9.8,0-18.1-3.2-24.7-9.8-6.6-6.5-9.9-14.5-9.9-24,0-9.5,3.3-17.5,9.9-24,6.6-6.5,14.9-9.7,24.7-9.8,9.8,0,18.1,3.2,24.7,9.7,6.6,6.5,9.9,14.5,9.9,24,0,9.6-3.4,17.6-9.9,24.1-6.6,6.4-14.9,9.7-24.7,9.7"/>
    <polygon class="cls-1" points="707.1 187.6 678.6 147.3 678.6 187.6 663.4 187.6 663.4 122.6 678.7 122.6 707.7 163.3 707.7 122.6 722.9 122.6 722.9 187.6 707.1 187.6"/>
    <path class="cls-1" d="M749,135.2v39.7h4.2c7.1,0,12.6-1.7,16.6-5.2,4-3.5,6-8.3,6-14.5,0-6.4-2-11.3-6-14.7-4-3.4-9.5-5.1-16.6-5.1h-4.2ZM733.7,187.6v-65h20.9c11.1,0,19.9,2.9,26.5,8.6,6.6,5.7,9.9,13.6,9.9,23.4s-3.3,18.6-9.9,24.3c-6.6,5.7-15.7,8.6-27.4,8.6h-20Z"/>
    <path class="cls-1" d="M832.1,175.1c5.5,0,10.1-1.9,13.8-5.8,3.7-3.8,5.5-8.6,5.5-14.3s-1.9-10.5-5.5-14.3c-3.7-3.8-8.3-5.7-13.8-5.7s-10.1,1.9-13.8,5.7c-3.7,3.8-5.5,8.6-5.5,14.2s1.8,10.4,5.6,14.3c3.7,3.9,8.3,5.8,13.8,5.8M832.1,188.8c-9.8,0-18-3.2-24.7-9.8-6.6-6.5-9.9-14.5-9.9-24,0-9.5,3.3-17.5,9.9-24,6.7-6.5,14.9-9.7,24.7-9.8,9.8,0,18.1,3.2,24.7,9.7,6.6,6.5,10,14.5,10,24,0,9.6-3.4,17.6-10,24.1-6.6,6.4-14.8,9.7-24.7,9.7"/>
    <polygon class="cls-1" points="920.3 187.6 891.7 147.3 891.7 187.6 876.5 187.6 876.5 122.6 891.8 122.6 920.8 163.3 920.8 122.6 936.1 122.6 936.1 187.6 920.3 187.6"/>
  </g>
</svg>