<svg width="179" height="159" viewBox="0 0 179 159" fill="none" xmlns="http://www.w3.org/2000/svg">
  <path d="M38.2325 104.37C53.8325 72.7699 34.3992 36.5365 22.7325 22.3699C-6.86749 61.1699 0.0658383 93.2032 7.2325 104.37C20.4325 120.37 33.3992 111.037 38.2325 104.37Z" stroke="white"/>
  <path d="M22.2344 55.3699V137.37" stroke="white"/>
  <path d="M22.2344 83.3699L30.2344 72.3699M33.2344 84.8699L22.2344 98.3699L10.7344 84.8699" stroke="white"/>
  <path d="M111.121 113.475C132.518 70.1311 105.863 20.4317 89.8601 1C49.2593 54.2199 58.7694 98.1584 68.5996 113.475C86.7053 135.422 104.491 122.619 111.121 113.475Z" stroke="white"/>
  <path d="M89.1758 46.2644V158.74" stroke="white"/>
  <path d="M89.1724 84.6707L100.146 69.5825M104.261 86.7281L89.1724 105.245L73.3984 86.7281" stroke="white"/>
  <path d="M172.334 104.37C187.934 72.7699 168.501 36.5365 156.834 22.3699C127.234 61.1699 134.167 93.2032 141.334 104.37C154.534 120.37 167.501 111.037 172.334 104.37Z" stroke="white"/>
  <path d="M156.336 55.3699V137.37" stroke="white"/>
  <path d="M156.336 83.3699L164.336 72.3699M167.336 84.8699L156.336 98.3699L144.836 84.8699" stroke="white"/>
  </svg>
