<svg width="506" height="247" viewBox="0 0 506 247" fill="none" xmlns="http://www.w3.org/2000/svg">
  <g opacity="0.75">
  <g clip-path="url(#clip0_1599_109109)">
  <path d="M7.39547 168.253L14.7156 182.122L21.9892 195.913L29.3094 209.777L36.5934 223.588M29.3146 237.395L22.0255 223.588L14.7053 209.725L7.42134 195.939L0.106347 182.07M43.9187 209.72L36.6296 195.908L29.3094 182.039L22.0306 168.253L14.7105 154.384L7.43686 140.599M14.7156 126.813L21.9892 140.599L29.3094 154.463L36.583 168.248L43.9032 182.117L51.1923 195.929M21.9892 85.2794L29.3094 99.1587L36.583 112.939L43.9032 126.808L51.1768 140.594L58.497 154.468M51.2285 168.253L43.9084 154.384L36.6296 140.599L29.3094 126.73L22.0306 112.944L14.7105 99.0754M60.199 166.348C60.1938 165.354 60.1783 164.359 60.1524 163.349C60.1472 162.99 60.1472 162.626 60.1317 162.256C60.1317 161.845 60.1265 161.433 60.111 161.022C60.111 160.944 60.111 160.866 60.1059 160.793C60.1059 160.548 60.0955 160.314 60.0903 160.08C60.0748 159.268 60.0438 158.445 60.0231 157.628C60.0231 157.524 60.0231 157.42 60.0127 157.315C59.9558 155.556 59.8886 153.791 59.8058 152.026C59.7127 149.933 59.5937 147.846 59.4592 145.753C59.4075 145.029 59.3557 144.306 59.2988 143.582C59.2626 143.072 59.2264 142.546 59.1902 142.031C59.185 141.869 59.1695 141.723 59.1591 141.572C59.1229 141.161 59.0919 140.745 59.0505 140.328C59.0039 139.74 58.9574 139.162 58.9005 138.558C58.8487 137.98 58.7918 137.408 58.7401 136.819C58.4711 133.899 58.1452 131.009 57.7727 128.141C57.7003 127.542 57.6123 126.943 57.5347 126.355C57.452 125.751 57.364 125.158 57.2761 124.569C57.2657 124.486 57.2502 124.398 57.2347 124.314C56.8208 121.503 56.3552 118.728 55.8276 116.011C55.6724 115.167 55.5016 114.334 55.3309 113.507C55.2068 112.981 55.093 112.46 54.9791 111.945C54.9326 111.747 54.8964 111.554 54.8498 111.377C54.8343 111.304 54.824 111.237 54.8033 111.174C54.6998 110.706 54.5912 110.242 54.4825 109.789C54.3221 109.092 54.1566 108.405 53.9962 107.717C53.3754 105.109 52.7391 102.621 52.0976 100.226C51.9114 99.4867 51.7045 98.7474 51.5079 98.0394C51.4872 97.9457 51.451 97.852 51.4303 97.7687C51.2958 97.2585 51.1561 96.7691 51.0113 96.2745C50.3336 93.8902 49.6455 91.636 48.9575 89.5171C48.6367 88.5175 48.3263 87.5544 48.0056 86.6173C47.8349 86.1227 47.6693 85.623 47.4986 85.1388C47.3382 84.6807 47.1675 84.2225 47.0123 83.7644C46.8261 83.2646 46.6398 82.7648 46.464 82.2807C46.4277 82.1974 46.4019 82.1089 46.3657 82.036C46.2208 81.6299 46.0708 81.2343 45.9156 80.8438C45.8432 80.6772 45.7811 80.5054 45.7138 80.344C45.6466 80.1774 45.5845 80.0108 45.5172 79.8547C45.4448 79.6777 45.3776 79.5059 45.3155 79.3341C45.2948 79.2664 45.2638 79.1883 45.2327 79.1206C45.062 78.6989 44.8965 78.2928 44.7257 77.892C44.5705 77.4963 44.3998 77.1111 44.2395 76.7362C44.1981 76.6425 44.1619 76.5592 44.1205 76.4707C43.8308 75.7887 43.5411 75.138 43.2514 74.5133C43.1065 74.2009 42.9617 73.8885 42.822 73.5814C42.7754 73.4877 42.734 73.3887 42.6875 73.295C42.5168 72.9462 42.3512 72.5922 42.1753 72.2486C42.0046 71.9102 41.8391 71.5718 41.6683 71.2439C41.6063 71.1137 41.5338 70.9836 41.4666 70.8534C41.3631 70.6608 41.27 70.4629 41.1665 70.2859C40.9596 69.8903 40.7527 69.5102 40.5457 69.1354C40.463 68.9792 40.375 68.8126 40.2819 68.6512C40.1474 68.4274 40.0181 68.1931 39.8887 67.9692C39.7853 67.7922 39.6818 67.6257 39.5887 67.4539C39.5576 67.4018 39.5318 67.3601 39.5059 67.3133C39.4904 67.2821 39.4645 67.2612 39.449 67.23C39.2783 66.9541 39.1076 66.6781 38.9472 66.4126C38.9058 66.3606 38.88 66.3189 38.8437 66.2617C38.673 65.991 38.5178 65.7359 38.3316 65.4703C38.1609 65.2152 37.9953 64.9602 37.8246 64.7207C37.7211 64.5697 37.6125 64.4187 37.4935 64.2573C37.2814 63.9502 37.0693 63.6638 36.8624 63.3827C36.8313 63.3359 36.7951 63.289 36.7537 63.237C36.6503 63.112 36.5623 62.9871 36.4744 62.8777C36.3399 62.7163 36.2105 62.555 36.0812 62.3936C35.9571 62.2426 35.8277 62.0864 35.7036 61.9406C35.5742 61.7949 35.4397 61.6491 35.3207 61.5085C35.1862 61.3628 35.0569 61.2274 34.9276 61.0869C34.8914 61.0504 34.8552 61.014 34.8241 60.9723C34.7879 60.9463 34.762 60.9098 34.7362 60.8786C34.6689 60.8057 34.6068 60.7433 34.5448 60.686C34.3792 60.5142 34.2137 60.3632 34.0481 60.2122C33.8929 60.0665 33.7377 59.9207 33.5774 59.7801C33.4273 59.6448 33.2721 59.5198 33.1169 59.3949C32.9669 59.2699 32.8221 59.1554 32.6669 59.0513C32.522 58.9368 32.3772 58.843 32.2323 58.7441C32.0875 58.6504 31.953 58.5619 31.8133 58.4786C31.6788 58.4005 31.5443 58.3224 31.4149 58.2548C31.2856 58.1871 31.1563 58.1246 31.0269 58.0621C30.6596 57.9007 30.3182 57.7758 30.0026 57.7081C29.7802 57.6561 29.5733 57.6248 29.3818 57.604C29.3611 57.604 29.3198 57.604 29.2991 57.6144C29.268 57.604 29.237 57.604 29.206 57.6144C29.0663 57.6144 28.9214 57.6352 28.7714 57.6665C28.6162 57.7029 28.4455 57.7394 28.2644 57.8018C28.1713 57.8227 28.0885 57.8539 27.9954 57.8903C27.9023 57.9216 27.8143 57.9528 27.7161 57.9997C27.5919 58.0569 27.4626 58.109 27.3384 58.1767C27.2039 58.2391 27.0694 58.3172 26.9297 58.3953C26.8625 58.4214 26.7952 58.463 26.728 58.5099C26.6917 58.5255 26.6659 58.5515 26.6348 58.5723C26.6141 58.5879 26.5935 58.5984 26.5521 58.6296C26.4848 58.666 26.4176 58.7129 26.3451 58.7597C26.2934 58.8014 26.2313 58.8326 26.1744 58.8743C26.1486 58.8951 26.1123 58.9211 26.0865 58.942C25.9675 59.02 25.8589 59.1033 25.745 59.1971C25.6933 59.2335 25.6519 59.2699 25.6002 59.3116C25.0208 59.7593 24.4155 60.3112 23.7895 60.9827C23.6913 61.0764 23.5981 61.1806 23.505 61.2899C23.2153 61.5866 22.9463 61.9042 22.6618 62.253C22.3048 62.6747 21.9323 63.138 21.5702 63.6326C21.2236 64.0959 20.8822 64.5801 20.52 65.1111C20.2355 65.5276 19.9562 65.9701 19.6613 66.4283C19.0974 67.3237 18.5232 68.2972 17.9438 69.3593C17.7679 69.6716 17.6023 69.9892 17.4213 70.3224C17.1678 70.7961 16.9195 71.2907 16.6608 71.8217C16.3763 72.384 16.0917 72.9775 15.802 73.5866C15.621 73.9614 15.4502 74.3467 15.2692 74.7423C15.1347 75.0339 15.0002 75.3358 14.8708 75.6326C14.6639 76.0959 14.457 76.5801 14.2449 77.0798C14.2397 77.0903 14.2294 77.1163 14.219 77.1475C14.1 77.4026 13.9966 77.6473 13.8879 77.9076C13.7741 78.1887 13.6499 78.4751 13.531 78.7718C13.4741 78.9176 13.412 79.0529 13.3602 79.1987C13.293 79.3757 13.2154 79.5579 13.1481 79.7401C12.9929 80.1046 12.8584 80.4846 12.7084 80.8594C12.4291 81.557 12.1704 82.2755 11.8962 83.0199C11.6686 83.6343 11.4358 84.2642 11.2082 84.9202C11.1254 85.144 11.053 85.3783 10.965 85.6126C10.5305 86.8568 10.0907 88.1531 9.66136 89.5119C9.34579 90.475 9.0354 91.4642 8.73018 92.4845C8.53877 93.0989 8.35253 93.7236 8.17664 94.3639C7.34891 97.1492 6.52119 100.143 5.70899 103.339C5.35204 104.724 5.00025 106.135 4.65365 107.598C4.6433 107.639 4.63295 107.681 4.62778 107.723C4.47258 108.353 4.32773 108.972 4.17253 109.618C4.02251 110.289 3.87248 110.966 3.70694 111.653C3.57761 112.247 3.43793 112.835 3.3086 113.444C3.3086 113.465 3.30342 113.486 3.29308 113.517C2.69815 116.406 2.15496 119.374 1.67902 122.393C1.62729 122.721 1.5859 123.039 1.52899 123.372C1.48761 123.684 1.4307 124.002 1.39449 124.32V124.33C1.32724 124.741 1.27033 125.147 1.20825 125.559C1.08409 126.418 0.965109 127.282 0.861643 128.151C0.82543 128.391 0.794391 128.641 0.768525 128.885C0.659886 129.666 0.566767 130.463 0.473649 131.249C0.33397 132.352 0.209812 133.472 0.101174 134.591C0.0184015 135.414 -0.069544 136.241 -0.147143 137.069C-0.152316 137.132 -0.157489 137.205 -0.157489 137.272C-0.240262 138.162 -0.317861 139.063 -0.400633 139.979C-0.462712 140.713 -0.524791 141.442 -0.576524 142.171C-0.592044 142.322 -0.60239 142.483 -0.61791 142.645C-0.654123 143.04 -0.674816 143.436 -0.700682 143.821C-0.742068 144.347 -0.778281 144.878 -0.809321 145.404C-0.8714 146.315 -0.933479 147.242 -0.990385 148.158C-1.05764 149.314 -1.11972 150.47 -1.17145 151.62C-1.17662 151.75 -1.18697 151.886 -1.18697 152.016C-1.22835 152.786 -1.25939 153.562 -1.28526 154.327C-1.30595 154.874 -1.33182 155.42 -1.34734 155.978C-1.36803 156.441 -1.38873 156.904 -1.40425 157.362C-1.41459 157.711 -1.41977 158.055 -1.43011 158.398C-1.45081 159.278 -1.47667 160.148 -1.49736 161.033C-1.606 165.749 -1.6267 170.424 -1.58014 175.006C-1.58014 175.63 -1.57496 176.25 -1.55944 176.88C-1.55944 177 -1.55427 177.114 -1.55427 177.239C-1.55427 177.817 -1.54392 178.4 -1.5284 178.978C-1.5284 179.28 -1.51806 179.582 -1.51288 179.884C-1.48702 181.581 -1.44563 183.262 -1.3939 184.923C-1.36803 185.933 -1.33182 186.933 -1.30078 187.932C-1.22835 190.004 -1.14558 192.035 -1.05764 194.029C-1.01625 194.726 -0.990385 195.424 -0.954172 196.116C-0.912786 196.788 -0.88692 197.454 -0.845533 198.126C-0.762761 199.714 -0.669643 201.27 -0.571351 202.796C-0.509271 203.915 -0.436846 205.029 -0.359247 206.122C-0.291994 207.174 -0.219569 208.205 -0.147143 209.22C-0.12645 209.537 -0.100584 209.85 -0.0747173 210.157C-0.0333312 210.771 0.0132283 211.37 0.0597877 211.963C0.101174 212.635 0.15808 213.291 0.209812 213.942C0.302931 215.051 0.39605 216.144 0.489168 217.195C0.525381 217.648 0.561594 218.091 0.60298 218.533C0.644366 219.012 0.685752 219.486 0.732312 219.955C0.768525 220.387 0.809911 220.803 0.851297 221.22C1.02201 223.021 1.17721 224.708 1.33758 226.249C1.36345 226.556 1.39966 226.863 1.4307 227.155C1.46174 227.451 1.49278 227.748 1.52382 228.029C1.55486 228.316 1.5859 228.592 1.61694 228.883C1.62211 228.935 1.62211 228.987 1.63246 229.034C1.70489 229.706 1.77731 230.341 1.83939 230.934C1.92216 231.679 2.01011 232.371 2.08253 233.006C2.10323 233.183 2.12392 233.365 2.14461 233.537C2.16531 233.73 2.18083 233.902 2.20669 234.073C2.21186 234.136 2.22221 234.198 2.22738 234.261C2.24808 234.454 2.27394 234.641 2.29981 234.813C2.34637 235.214 2.38776 235.568 2.42914 235.88C2.46018 236.119 2.49122 236.333 2.51191 236.515C2.51191 236.567 2.51191 236.614 2.52226 236.65C2.52226 236.708 2.53261 236.755 2.53778 236.812C2.59469 237.218 2.62055 237.431 2.62055 237.431C2.62055 237.431 3.1534 241.112 3.51035 243.778C3.60865 244.491 3.69142 245.131 3.7535 245.61C3.80006 246.032 3.8311 246.323 3.8311 246.433H54.7722C54.7722 246.235 54.8809 245.365 55.0257 244.23C55.0412 244.095 55.0671 243.955 55.0826 243.814C55.1395 243.434 55.1964 243.038 55.2533 242.622C55.5896 240.159 55.9879 237.426 55.9879 237.426C55.9879 237.426 55.9983 237.291 56.0397 237.025C56.05 236.963 56.0552 236.895 56.0759 236.817C56.0862 236.661 56.1173 236.458 56.1431 236.218C56.1483 236.156 56.1638 236.109 56.169 236.047C56.1742 235.984 56.1897 235.911 56.1897 235.854C56.2259 235.614 56.2569 235.354 56.288 235.063C56.3501 234.605 56.407 234.094 56.4742 233.516C56.4742 233.501 56.4794 233.49 56.4794 233.475C56.526 233.09 56.5777 232.673 56.6242 232.236C56.6501 231.96 56.6915 231.679 56.7277 231.377C56.7484 231.148 56.7794 230.919 56.8001 230.69C56.857 230.221 56.9088 229.732 56.9605 229.211C56.9864 228.956 57.0174 228.696 57.0433 228.425C57.0691 228.128 57.1105 227.811 57.1416 227.493C57.3485 225.51 57.5709 223.271 57.7986 220.798C57.8813 219.913 57.9693 218.997 58.0521 218.049C58.1607 216.841 58.2642 215.582 58.3676 214.28C58.4452 213.447 58.5073 212.614 58.5746 211.729C58.6159 211.203 58.6522 210.683 58.6935 210.146C58.7142 209.85 58.7349 209.553 58.7556 209.246C58.9108 207.07 59.0712 204.795 59.2161 202.436C59.2678 201.603 59.3143 200.755 59.3609 199.891C59.4592 198.329 59.542 196.736 59.6144 195.101C59.6765 193.831 59.7386 192.555 59.7903 191.254C59.8161 190.358 59.8575 189.452 59.8989 188.531C59.9403 187.334 59.9765 186.121 60.0179 184.902C60.0541 183.637 60.0852 182.372 60.1162 181.086C60.1162 180.977 60.1214 180.878 60.1214 180.774C60.1369 180.18 60.1472 179.582 60.1524 178.978C60.1576 178.895 60.1576 178.806 60.1576 178.723C60.1938 177.234 60.2145 175.724 60.2197 174.204C60.2352 171.611 60.2352 168.998 60.2041 166.358L60.199 166.348Z" stroke="#001732" stroke-linecap="round" stroke-linejoin="round"/>
  <path d="M12.5791 80.8384H46.0501" stroke="#001732" stroke-linecap="round" stroke-linejoin="round"/>
  <path d="M56.4694 233.501L51.2082 223.531V223.526L43.9191 209.715L36.6351 195.908L29.315 182.039L22.0362 168.254L14.716 154.379L7.44241 140.594L0.867188 128.136" stroke="#001732" stroke-linecap="round" stroke-linejoin="round"/>
  <path d="M48.6472 246.412L43.8878 237.4L36.5987 223.588L29.3147 209.777L21.9946 195.913L14.7158 182.122L7.39563 168.253L0.122022 154.468L-1.18164 152" stroke="#001732" stroke-linecap="round" stroke-linejoin="round"/>
  <path d="M34.0741 246.412L29.3147 237.395L22.0255 223.589L14.7054 209.725L7.4266 195.934V195.929L0.106431 182.065L-1.52832 178.962" stroke="#001732" stroke-linecap="round" stroke-linejoin="round"/>
  <path d="M60.0132 184.892V184.887L58.5181 182.06L51.229 168.253L43.9088 154.379L36.6352 140.593L29.315 126.725L22.0363 112.939L14.7161 99.0648L9.66699 89.4961" stroke="#001732" stroke-linecap="round" stroke-linejoin="round"/>
  <path d="M58.6882 210.131L58.4865 209.74L51.1974 195.929L43.9082 182.122L36.5881 168.248L29.3145 154.462L21.9943 140.599L14.7155 126.813L7.39534 112.944L4.63281 107.707V107.702" stroke="#001732" stroke-linecap="round" stroke-linejoin="round"/>
  <path d="M57.2296 124.309L51.2286 112.939L43.9084 99.07L36.6348 85.2843L34.2861 80.8384" stroke="#001732" stroke-linecap="round" stroke-linejoin="round"/>
  <path d="M19.6514 80.8438L21.9897 85.2793L29.315 99.1586L36.5886 112.939L43.9088 126.808L51.1876 140.594L58.5078 154.473L60.008 157.315" stroke="#001732" stroke-linecap="round" stroke-linejoin="round"/>
  <path d="M43.9081 154.379L36.5879 168.254" stroke="#001732" stroke-linecap="round" stroke-linejoin="round"/>
  <path d="M29.3143 182.039L21.9941 195.913" stroke="#001732" stroke-linecap="round" stroke-linejoin="round"/>
  <path d="M57.762 128.141L51.1816 140.594" stroke="#001732" stroke-linecap="round" stroke-linejoin="round"/>
  <path d="M36.6346 195.908L29.3145 209.777" stroke="#001732" stroke-linecap="round" stroke-linejoin="round"/>
  <path d="M59.8002 152.021L58.5068 154.473" stroke="#001732" stroke-linecap="round" stroke-linejoin="round"/>
  <path d="M51.2284 168.253L43.9082 182.122" stroke="#001732" stroke-linecap="round" stroke-linejoin="round"/>
  <path d="M51.1973 195.929L58.5174 182.06L60.147 178.967" stroke="#001732" stroke-linecap="round" stroke-linejoin="round"/>
  <path d="M29.3143 126.725L21.9941 140.599" stroke="#001732" stroke-linecap="round" stroke-linejoin="round"/>
  <path d="M14.7157 154.379L7.39551 168.254" stroke="#001732" stroke-linecap="round" stroke-linejoin="round"/>
  <path d="M0.111865 182.065L-1.39355 184.907" stroke="#001732" stroke-linecap="round" stroke-linejoin="round"/>
  <path d="M36.5879 112.939L43.9081 99.0702L48.9468 89.5171" stroke="#001732" stroke-linecap="round" stroke-linejoin="round"/>
  <path d="M36.6346 140.594L29.3145 154.468" stroke="#001732" stroke-linecap="round" stroke-linejoin="round"/>
  <path d="M-0.0693359 210.146V210.141L0.137594 209.74L7.42672 195.934V195.929" stroke="#001732" stroke-linecap="round" stroke-linejoin="round"/>
  <path d="M22.036 168.253L14.7158 182.122" stroke="#001732" stroke-linecap="round" stroke-linejoin="round"/>
  <path d="M43.9082 126.808L51.2284 112.939L53.9857 107.712" stroke="#001732" stroke-linecap="round" stroke-linejoin="round"/>
  <path d="M1.3997 124.304L1.39453 124.314" stroke="#001732" stroke-linecap="round" stroke-linejoin="round"/>
  <path d="M24.3379 80.8438L21.9893 85.2793" stroke="#001732" stroke-linecap="round" stroke-linejoin="round"/>
  <path d="M14.7157 99.0649L7.39551 112.944" stroke="#001732" stroke-linecap="round" stroke-linejoin="round"/>
  <path d="M38.9833 80.8438L36.6346 85.2845L29.3145 99.1586" stroke="#001732" stroke-linecap="round" stroke-linejoin="round"/>
  <path d="M22.036 112.939L14.7158 126.813" stroke="#001732" stroke-linecap="round" stroke-linejoin="round"/>
  <path d="M7.44169 140.594L0.121525 154.473L-1.39941 157.347" stroke="#001732" stroke-linecap="round" stroke-linejoin="round"/>
  </g>
  <g clip-path="url(#clip1_1599_109109)">
  <path d="M64.1621 222.089H70.5344" stroke="#001732" stroke-linecap="round" stroke-linejoin="round"/>
  <path d="M72.0365 205.592H66.332" stroke="#001732" stroke-linecap="round" stroke-linejoin="round"/>
  <path d="M98.3164 246.448V234.538V231.237V226.285V222.984V218.037V214.736V201.54V198.235V193.287V189.986V176.794V173.489V160.293V156.992V152.045V148.744V143.792V140.495V135.544V132.243V127.295V123.994V119.047V115.75V110.794V107.497V102.546V99.2487V94.2971V91.0003V86.0529V82.7518V77.8002V74.5033V61.3032" stroke="#001732" stroke-linecap="round" stroke-linejoin="round"/>
  <path d="M135.334 246.516L100.46 246.453L98.9332 246.448H98.2823L97.9973 246.453H61.2949L62.8603 234.534L63.0773 232.883L63.2942 231.233L63.9451 226.286L64.379 222.984L65.0298 218.037L65.4637 214.74L66.1103 209.789L66.5442 206.487L67.1993 201.54L67.6332 198.239L68.284 193.287L68.7179 189.991L69.3688 185.039L69.7984 181.738L70.4493 176.79L70.8874 173.489L71.534 168.542L71.9679 165.245L72.6187 160.294L73.0526 156.992L73.7035 152.041L74.1374 148.744L74.7882 143.792L75.2221 140.496L75.8687 135.544L76.3068 132.243L76.9534 127.295L77.3873 123.994L78.0382 119.047L78.4721 115.746L79.1229 110.798L79.5568 107.497L80.2076 102.546L80.6415 99.2489L81.2924 94.2973L81.7263 91.0005L82.3729 86.0531L82.8067 82.7478L83.4618 77.8046L83.8957 74.5035L84.5466 69.5519L84.9805 66.2508L85.6313 61.3034L86.061 58.0024L86.7118 53.0507L87.1457 49.7539L87.7965 44.8023L88.2304 41.5012L88.8643 36.6599L89.3024 33.3588L89.949 28.4114L90.3829 25.1146L91.0337 20.1629L91.4676 16.8619L93.6201 0.479492L94.8452 16.8619L95.0919 20.1629L95.4578 25.1146L95.7045 28.4114L95.8406 30.2317L96.0746 33.3588L96.3213 36.6599L96.6829 41.5012L96.9296 44.8023L97.0827 46.8814L97.1593 47.9124L97.2954 49.7539L97.5464 53.0507L97.9122 58.0024L98.1547 61.3034L98.2823 62.9625V59.6784L98.3717 58.0024L98.6354 53.0507L98.8056 49.7539L98.9034 47.9124L98.9332 47.3778L99.0693 44.8023L99.2437 41.5012L99.5032 36.6599L99.6776 33.3588L99.8435 30.2317L100.379 20.1629L100.554 16.8619L101.388 1.14989L103.561 16.8619L104.017 20.1629L105.846 33.3588L106.301 36.6599L106.969 41.5012L107.428 44.8023L108.109 49.7539L108.568 53.0507L110.393 66.2508L110.853 69.5519L111.537 74.5035L111.988 77.8046L112.677 82.7478L113.133 86.0531L113.817 91.0005L114.273 94.2973L114.958 99.2489L115.413 102.546L116.098 107.497L116.557 110.798L117.242 115.746L117.697 119.047L118.382 123.994L118.837 127.295L119.526 132.243L119.981 135.544L120.666 140.496L121.121 143.792L121.555 146.928L121.806 148.744L122.266 152.041L122.517 153.861L125.231 173.489L125.686 176.79L126.371 181.738L126.826 185.039L127.511 189.991L127.97 193.287L128.651 198.239L129.11 201.54L129.795 206.487L130.25 209.789L130.935 214.74L131.394 218.037L132.079 222.984L132.535 226.286L133.219 231.233L133.679 234.534L135.325 246.453L135.334 246.516Z" stroke="#001732" stroke-linecap="round" stroke-linejoin="round"/>
  <path d="M86.299 232.883H63.0771" stroke="#001732" stroke-linecap="round" stroke-linejoin="round"/>
  <path d="M65.2471 216.387H82.8836" stroke="#001732" stroke-linecap="round" stroke-linejoin="round"/>
  <path d="M91.7734 216.387H131.164" stroke="#001732" stroke-linecap="round" stroke-linejoin="round"/>
  <path d="M132.411 224.635H121.568" stroke="#001732" stroke-linecap="round" stroke-linejoin="round"/>
  <path d="M113.587 224.635H89.1914" stroke="#001732" stroke-linecap="round" stroke-linejoin="round"/>
  <path d="M78.332 208.134H97.9126H98.1593" stroke="#001732" stroke-linecap="round" stroke-linejoin="round"/>
  <path d="M130.02 208.134H106.241" stroke="#001732" stroke-linecap="round" stroke-linejoin="round"/>
  <path d="M120.819 199.885H120.824H128.88" stroke="#001732" stroke-linecap="round" stroke-linejoin="round"/>
  <path d="M82.4111 199.885H88.2262H91.9526H98.1547H111.861" stroke="#001732" stroke-linecap="round" stroke-linejoin="round"/>
  <path d="M68.501 191.637H98.3121H127.74" stroke="#001732" stroke-linecap="round" stroke-linejoin="round"/>
  <path d="M88.1246 183.393H78.749" stroke="#001732" stroke-linecap="round" stroke-linejoin="round"/>
  <path d="M126.601 183.393H118.259" stroke="#001732" stroke-linecap="round" stroke-linejoin="round"/>
  <path d="M113.094 175.14H98.3119H70.666" stroke="#001732" stroke-linecap="round" stroke-linejoin="round"/>
  <path d="M120.636 166.892H105.42" stroke="#001732" stroke-linecap="round" stroke-linejoin="round"/>
  <path d="M88.2262 166.892H71.751" stroke="#001732" stroke-linecap="round" stroke-linejoin="round"/>
  <path d="M116.204 158.643H98.312H98.1589H72.8398" stroke="#001732" stroke-linecap="round" stroke-linejoin="round"/>
  <path d="M114.038 150.39H106.241H98.1543H91.9521" stroke="#001732" stroke-linecap="round" stroke-linejoin="round"/>
  <path d="M83.8197 150.39H73.9209" stroke="#001732" stroke-linecap="round" stroke-linejoin="round"/>
  <path d="M75.0049 142.142H98.3118H120.891" stroke="#001732" stroke-linecap="round" stroke-linejoin="round"/>
  <path d="M95.8066 133.894H98.1548H98.3122H109.866H119.756" stroke="#001732" stroke-linecap="round" stroke-linejoin="round"/>
  <path d="M86.4017 133.894H79.2637" stroke="#001732" stroke-linecap="round" stroke-linejoin="round"/>
  <path d="M96.2874 125.645H83.8193" stroke="#001732" stroke-linecap="round" stroke-linejoin="round"/>
  <path d="M118.612 125.645H104.132" stroke="#001732" stroke-linecap="round" stroke-linejoin="round"/>
  <path d="M117.472 117.392H114.124" stroke="#001732" stroke-linecap="round" stroke-linejoin="round"/>
  <path d="M78.2598 117.392H83.6537H91.4893H98.1551H98.3125H107.382" stroke="#001732" stroke-linecap="round" stroke-linejoin="round"/>
  <path d="M84.2318 109.144H79.3398" stroke="#001732" stroke-linecap="round" stroke-linejoin="round"/>
  <path d="M91.0596 109.144H98.155H102.694H109.866H110.657" stroke="#001732" stroke-linecap="round" stroke-linejoin="round"/>
  <path d="M80.4287 100.895H98.312H115.187" stroke="#001732" stroke-linecap="round" stroke-linejoin="round"/>
  <path d="M114.043 92.6426H107.382" stroke="#001732" stroke-linecap="round" stroke-linejoin="round"/>
  <path d="M87.7459 92.6426H81.5098" stroke="#001732" stroke-linecap="round" stroke-linejoin="round"/>
  <path d="M82.5938 84.394H98.3118H104.28" stroke="#001732" stroke-linecap="round" stroke-linejoin="round"/>
  <path d="M83.6787 76.1455H98.312H111.763" stroke="#001732" stroke-linecap="round" stroke-linejoin="round"/>
  <path d="M110.623 67.8931H103.527" stroke="#001732" stroke-linecap="round" stroke-linejoin="round"/>
  <path d="M93.3607 67.8931H84.7637" stroke="#001732" stroke-linecap="round" stroke-linejoin="round"/>
  <path d="M91.2588 59.6445H98.0352H98.2777H106.007" stroke="#001732" stroke-linecap="round" stroke-linejoin="round"/>
  <path d="M98.7246 51.396H99.8434H108.338" stroke="#001732" stroke-linecap="round" stroke-linejoin="round"/>
  <path d="M91.2588 51.396H86.9326" stroke="#001732" stroke-linecap="round" stroke-linejoin="round"/>
  <path d="M104.335 43.1475H99.1582H96.8059H91.0674" stroke="#001732" stroke-linecap="round" stroke-linejoin="round"/>
  <path d="M106.058 34.895H96.1895" stroke="#001732" stroke-linecap="round" stroke-linejoin="round"/>
  <path d="M96.1895 34.895H89.1025" stroke="#001732" stroke-linecap="round" stroke-linejoin="round"/>
  </g>
  <g clip-path="url(#clip2_1599_109109)">
  <path d="M386.95 178.238H326.921V187.535H386.95V178.238Z" stroke="#001732" stroke-linecap="round" stroke-linejoin="round"/>
  <path d="M412.871 163.629V246.112H386.944V163.629" stroke="#001732" stroke-linecap="round" stroke-linejoin="round"/>
  <path d="M404.769 163.629L399.909 139.262L395.054 163.629" stroke="#001732" stroke-linecap="round" stroke-linejoin="round"/>
  <path d="M399.914 201.189C401.325 201.189 402.471 202.656 402.471 204.472C402.471 204.494 402.471 204.517 402.471 204.539V210.171H397.357V204.539C397.357 204.539 397.357 204.494 397.357 204.472C397.357 202.656 398.504 201.189 399.914 201.189Z" stroke="#001732" stroke-linecap="round" stroke-linejoin="round"/>
  <path d="M402.476 180.919H397.357V186.552H402.476V180.919Z" stroke="#001732" stroke-linecap="round" stroke-linejoin="round"/>
  <path d="M397.43 165.147C397.43 163.331 398.577 161.864 399.987 161.864C401.398 161.864 402.544 163.331 402.544 165.147C402.544 165.169 402.544 165.192 402.538 165.214C402.544 165.214 402.544 170.847 402.544 170.847H397.425V165.214C397.425 165.214 397.425 165.169 397.425 165.147H397.43Z" stroke="#001732" stroke-linecap="round" stroke-linejoin="round"/>
  <path d="M326.922 187.535H316.773V178.306L321.696 175.714L326.922 178.306V187.535Z" stroke="#001732" stroke-linecap="round" stroke-linejoin="round"/>
  <path d="M358.568 178.238H353.882V187.535H358.568V178.238Z" stroke="#001732" stroke-linecap="round" stroke-linejoin="round"/>
  <path d="M289.992 177.923H285.306V186.046H289.992V177.923Z" stroke="#001732" stroke-linecap="round" stroke-linejoin="round"/>
  <path d="M386.95 218.738H412.871" stroke="#001732" stroke-linecap="round" stroke-linejoin="round"/>
  <path d="M386.95 194.264H412.871" stroke="#001732" stroke-linecap="round" stroke-linejoin="round"/>
  <path d="M387.023 175.152H412.95" stroke="#001732" stroke-linecap="round" stroke-linejoin="round"/>
  <path d="M412.832 163.629L408.803 148.868L404.763 163.629H412.832Z" stroke="#001732" stroke-linecap="round" stroke-linejoin="round"/>
  <path d="M408.798 148.868V143.916" stroke="#001732" stroke-linecap="round" stroke-linejoin="round"/>
  <path d="M399.914 139.262V133.635" stroke="#001732" stroke-linecap="round" stroke-linejoin="round"/>
  <path d="M404.769 163.629V175.152H395.054V163.629" stroke="#001732" stroke-linecap="round" stroke-linejoin="round"/>
  <path d="M394.98 163.629L390.946 148.868L386.911 163.629H394.98Z" stroke="#001732" stroke-linecap="round" stroke-linejoin="round"/>
  <path d="M390.945 148.868V143.916" stroke="#001732" stroke-linecap="round" stroke-linejoin="round"/>
  <path d="M316.773 178.238H249.354V187.535H316.773V178.238Z" stroke="#001732" stroke-linecap="round" stroke-linejoin="round"/>
  <path d="M298.831 178.485H238.802V187.783H298.831V178.485Z" stroke="#001732" stroke-linecap="round" stroke-linejoin="round"/>
  <path d="M212.881 163.876V246.359H238.808V163.876" stroke="#001732" stroke-linecap="round" stroke-linejoin="round"/>
  <path d="M220.983 163.876L225.844 139.509L230.699 163.876" stroke="#001732" stroke-linecap="round" stroke-linejoin="round"/>
  <path d="M225.845 201.436C224.429 201.436 223.282 202.903 223.282 204.719C223.282 204.741 223.288 204.764 223.288 204.786C223.282 204.786 223.282 210.418 223.282 210.418H228.401V204.786C228.401 204.786 228.401 204.741 228.401 204.719C228.401 202.903 227.255 201.436 225.845 201.436Z" stroke="#001732" stroke-linecap="round" stroke-linejoin="round"/>
  <path d="M225.845 228.321C224.429 228.321 223.282 229.788 223.282 231.604C223.282 231.626 223.288 231.649 223.288 231.671C223.282 231.671 223.282 237.304 223.282 237.304H228.401V231.671C228.401 231.671 228.401 231.626 228.401 231.604C228.401 229.788 227.255 228.321 225.845 228.321Z" stroke="#001732" stroke-linecap="round" stroke-linejoin="round"/>
  <path d="M228.401 181.167H223.282V186.799H228.401V181.167Z" stroke="#001732" stroke-linecap="round" stroke-linejoin="round"/>
  <path d="M228.322 165.394C228.322 163.578 227.176 162.111 225.766 162.111C224.355 162.111 223.209 163.578 223.209 165.394C223.209 165.416 223.215 165.439 223.215 165.461C223.209 165.461 223.209 171.094 223.209 171.094H228.328V165.461C228.328 165.461 228.328 165.416 228.328 165.394H228.322Z" stroke="#001732" stroke-linecap="round" stroke-linejoin="round"/>
  <path d="M298.831 187.782H308.979V178.553L304.062 175.961L298.831 178.553V187.782Z" stroke="#001732" stroke-linecap="round" stroke-linejoin="round"/>
  <path d="M271.871 178.485H267.185V187.783H271.871V178.485Z" stroke="#001732" stroke-linecap="round" stroke-linejoin="round"/>
  <path d="M340.446 178.17H335.76V186.293H340.446V178.17Z" stroke="#001732" stroke-linecap="round" stroke-linejoin="round"/>
  <path d="M238.802 218.985H212.881" stroke="#001732" stroke-linecap="round" stroke-linejoin="round"/>
  <path d="M238.802 194.511H212.881" stroke="#001732" stroke-linecap="round" stroke-linejoin="round"/>
  <path d="M238.728 175.399H212.802" stroke="#001732" stroke-linecap="round" stroke-linejoin="round"/>
  <path d="M212.92 163.877L216.954 149.116L220.989 163.877H212.92Z" stroke="#001732" stroke-linecap="round" stroke-linejoin="round"/>
  <path d="M216.955 149.116V144.164" stroke="#001732" stroke-linecap="round" stroke-linejoin="round"/>
  <path d="M225.844 139.509V133.883" stroke="#001732" stroke-linecap="round" stroke-linejoin="round"/>
  <path d="M220.983 163.876V175.4H230.699V163.876" stroke="#001732" stroke-linecap="round" stroke-linejoin="round"/>
  <path d="M230.772 163.877L234.807 149.116L238.842 163.877H230.772Z" stroke="#001732" stroke-linecap="round" stroke-linejoin="round"/>
  <path d="M234.807 149.116V144.164" stroke="#001732" stroke-linecap="round" stroke-linejoin="round"/>
  <path d="M212.825 246.359H136.449" stroke="#001732" stroke-linecap="round" stroke-linejoin="round"/>
  <path d="M198.249 246.359V215.225" stroke="#001732" stroke-linecap="round" stroke-linejoin="round"/>
  <path d="M184.437 246.359V227.444" stroke="#001732" stroke-linecap="round" stroke-linejoin="round"/>
  <path d="M170.619 246.359V235.589" stroke="#001732" stroke-linecap="round" stroke-linejoin="round"/>
  <path d="M156.802 246.359V240.98" stroke="#001732" stroke-linecap="round" stroke-linejoin="round"/>
  <path d="M212.802 192.583C212.802 192.583 197.265 237.658 136.629 245.274" stroke="#001732" stroke-linecap="round" stroke-linejoin="round"/>
  <path d="M376.398 178.485H308.979V187.783H376.398V178.485Z" stroke="#001732" stroke-linecap="round" stroke-linejoin="round"/>
  <path d="M412.804 246.303H489.179" stroke="#001732" stroke-linecap="round" stroke-linejoin="round"/>
  <path d="M427.38 246.303V215.168" stroke="#001732" stroke-linecap="round" stroke-linejoin="round"/>
  <path d="M441.192 246.303V227.394" stroke="#001732" stroke-linecap="round" stroke-linejoin="round"/>
  <path d="M455.01 246.303V235.533" stroke="#001732" stroke-linecap="round" stroke-linejoin="round"/>
  <path d="M468.827 246.303V240.924" stroke="#001732" stroke-linecap="round" stroke-linejoin="round"/>
  <path d="M412.826 192.527C412.826 192.527 428.369 237.602 489.005 245.218" stroke="#001732" stroke-linecap="round" stroke-linejoin="round"/>
  <path d="M400.037 227.096C401.448 227.096 402.594 228.563 402.594 230.379C402.594 230.401 402.594 230.424 402.594 230.446V236.079H397.48V230.446C397.48 230.446 397.48 230.401 397.48 230.379C397.48 228.563 398.627 227.096 400.037 227.096Z" stroke="#001732" stroke-linecap="round" stroke-linejoin="round"/>
  </g>
  </g>
  <defs>
  <clipPath id="clip0_1599_109109">
  <rect width="63" height="190" fill="white" transform="translate(-2.18555 57)"/>
  </clipPath>
  <clipPath id="clip1_1599_109109">
  <rect width="75" height="247" fill="white" transform="translate(60.8145)"/>
  </clipPath>
  <clipPath id="clip2_1599_109109">
  <rect width="354" height="114" fill="white" transform="translate(135.814 133)"/>
  </clipPath>
  </defs>
  </svg>
