<svg width="248" height="239" viewBox="0 0 248 239" fill="none" xmlns="http://www.w3.org/2000/svg">
  <g opacity="0.75">
  <g clip-path="url(#clip0_1599_109113)">
  <path d="M67.3167 161.574H17.3608V173.875H67.3167V161.574Z" stroke="#001732" stroke-linecap="round" stroke-linejoin="round"/>
  <path d="M57.1053 173.944C54.7047 179.77 48.9794 183.871 42.2956 183.871C35.6118 183.871 29.9729 179.831 27.542 174.074" stroke="#001732" stroke-linecap="round" stroke-linejoin="round"/>
  <path d="M27.5464 161.587C29.9773 155.83 35.668 151.791 42.3 151.791C48.932 151.791 54.545 155.774 57.0061 161.47" stroke="#001732" stroke-linecap="round" stroke-linejoin="round"/>
  <path d="M20.854 161.457C21.6744 158.685 23.0172 156.133 24.7658 153.923" stroke="#001732" stroke-linecap="round" stroke-linejoin="round"/>
  <path d="M63.8239 173.936C61.1728 183.343 52.5374 190.238 42.3001 190.238C32.0628 190.238 23.423 183.339 20.772 173.927" stroke="#001732" stroke-linecap="round" stroke-linejoin="round"/>
  <path d="M61.4229 156.207C62.4289 157.867 63.2277 159.667 63.7803 161.57" stroke="#001732" stroke-linecap="round" stroke-linejoin="round"/>
  <path d="M60.335 154.641C60.5293 154.914 60.512 154.875 60.6977 155.151" stroke="#001732" stroke-linecap="round" stroke-linejoin="round"/>
  <path d="M32.3218 147.777C35.3269 146.276 38.712 145.428 42.3 145.428C49.2472 145.428 55.4561 148.603 59.5579 153.581" stroke="#001732" stroke-linecap="round" stroke-linejoin="round"/>
  <path d="M59.9203 167.379V168.343L58.2105 165.93H57.062V169.749H57.8867V167.945V166.786L59.9851 169.749H60.745V165.93H59.9203V167.379Z" fill="#001732"/>
  <path d="M55.3611 168.127C55.3611 168.793 55.0675 169.126 54.4803 169.126C54.191 169.126 53.9708 169.04 53.824 168.871C53.6729 168.702 53.5995 168.456 53.5995 168.127V165.93H52.7705V168.261C52.7705 168.745 52.9259 169.13 53.2368 169.411C53.5477 169.693 53.9622 169.835 54.4803 169.835C54.9984 169.835 55.4 169.693 55.7152 169.411C56.0304 169.13 56.1901 168.745 56.1901 168.261V165.93H55.3611V168.127Z" fill="#001732"/>
  <path d="M22.1492 168.127C22.1492 168.793 21.8556 169.126 21.2684 169.126C20.9791 169.126 20.7589 169.04 20.6078 168.871C20.461 168.702 20.3876 168.456 20.3876 168.127V165.93H19.5586V168.261C19.5586 168.745 19.714 169.13 20.0249 169.411C20.3358 169.693 20.7503 169.835 21.2684 169.835C21.7865 169.835 22.1881 169.693 22.5033 169.411C22.8185 169.13 22.9782 168.745 22.9782 168.261V165.93H22.1535V168.127H22.1492Z" fill="#001732"/>
  <path d="M41.8553 166.527C42.3605 166.527 42.7016 166.782 42.8743 167.297L43.6514 167.007C43.5435 166.656 43.3319 166.375 43.0254 166.159C42.7188 165.947 42.3302 165.839 41.8553 165.839C41.2897 165.826 40.8104 166.021 40.4132 166.419C40.0159 166.816 39.8216 167.292 39.8346 167.85C39.826 168.447 39.9987 168.927 40.3527 169.295C40.7068 169.658 41.1342 169.84 41.6351 169.831C41.9762 169.831 42.2439 169.771 42.4295 169.645C42.6195 169.52 42.775 169.368 42.8829 169.204V169.745H43.6299V167.781H41.5876V168.469H42.8181C42.7879 168.655 42.6886 168.815 42.5202 168.949C42.3475 169.083 42.1187 169.152 41.8337 169.152C41.5055 169.152 41.2378 169.031 41.0176 168.797C40.8018 168.564 40.6938 168.248 40.6938 167.855C40.6938 167.461 40.8018 167.128 41.0176 166.886C41.2292 166.648 41.5099 166.527 41.8553 166.527Z" fill="#001732"/>
  <path d="M32.585 169.745H35.4649V169.061H33.414V168.123H34.964V167.444H33.414V166.617H35.4649V165.93H32.585V169.745Z" fill="#001732"/>
  <path d="M26.7045 167.379V168.343L24.9947 165.93H23.8462V169.749H24.6752V167.945V166.786L26.7693 169.749H27.5335V165.93H26.7045V167.379Z" fill="#001732"/>
  <path d="M50.9486 168.784C50.737 169.027 50.4564 169.148 50.098 169.148C49.7396 169.148 49.4504 169.027 49.2388 168.784C49.0272 168.542 48.9236 168.231 48.9236 167.846C48.9236 167.461 49.0272 167.141 49.2388 166.899C49.4504 166.656 49.7353 166.531 50.098 166.531C50.4607 166.531 50.737 166.652 50.9486 166.899C51.1602 167.141 51.2638 167.457 51.2638 167.846C51.2638 168.235 51.1602 168.547 50.9486 168.784ZM50.0937 165.843C49.4806 165.843 48.9884 166.034 48.6127 166.41C48.2414 166.786 48.0557 167.266 48.0557 167.85C48.0514 168.43 48.2328 168.906 48.6041 169.277C48.9797 169.654 49.4719 169.835 50.0894 169.835C50.7068 169.835 51.2034 169.654 51.5747 169.277C51.9503 168.906 52.1317 168.425 52.123 167.85C52.123 167.271 51.9374 166.79 51.5617 166.41C51.1904 166.029 50.6982 165.843 50.0851 165.843" fill="#001732"/>
  <path d="M29.8477 169.057H29.2734V166.613H29.8779C30.2535 166.613 30.5428 166.721 30.7414 166.937C30.94 167.154 31.0394 167.452 31.0394 167.824C31.0394 168.646 30.6421 169.057 29.8434 169.057M31.32 166.44C30.9271 166.09 30.4478 165.921 29.8865 165.925H28.4487V169.745H29.8865C30.4478 169.753 30.9271 169.576 31.32 169.217C31.7129 168.858 31.9072 168.386 31.8986 167.811C31.9072 167.245 31.7129 166.79 31.32 166.44Z" fill="#001732"/>
  <path d="M46.5615 167.495C46.4536 167.582 46.3068 167.625 46.1254 167.625H45.2274V166.617H46.1254C46.3111 166.617 46.4579 166.661 46.5615 166.747C46.6652 166.834 46.7213 166.959 46.7213 167.119C46.7213 167.279 46.6652 167.409 46.5615 167.495ZM47.2092 168.235C47.0667 168.105 46.8681 168.027 46.6133 168.001C46.8897 167.954 47.1185 167.841 47.3042 167.66C47.4898 167.482 47.5805 167.24 47.5805 166.937C47.5805 166.635 47.4639 166.388 47.2308 166.202C46.9976 166.02 46.6824 165.925 46.2766 165.925H44.394V169.74H45.223V168.291H45.9139C46.1557 168.291 46.3284 168.339 46.4363 168.43C46.5443 168.52 46.6177 168.676 46.6479 168.897L46.7645 169.74H47.6453L47.4855 168.823C47.4423 168.559 47.3474 168.36 47.2049 168.231" fill="#001732"/>
  <path d="M38.3408 167.495C38.2329 167.582 38.0861 167.625 37.9047 167.625H37.0067V166.617H37.9047C38.0904 166.617 38.2372 166.661 38.3408 166.747C38.4488 166.834 38.5006 166.959 38.5006 167.119C38.5006 167.279 38.4445 167.409 38.3408 167.495ZM38.9885 168.235C38.846 168.105 38.6474 168.027 38.3926 168.001C38.669 167.954 38.8978 167.841 39.0835 167.66C39.2691 167.482 39.3598 167.24 39.3598 166.937C39.3598 166.635 39.2432 166.388 39.0101 166.202C38.7812 166.02 38.4617 165.925 38.0559 165.925H36.1733V169.74H36.998V168.291H37.6889C37.9306 168.291 38.1034 168.339 38.2113 168.43C38.3192 168.52 38.3926 168.676 38.4229 168.897L38.5394 169.74H39.4203L39.2605 168.823C39.2173 168.559 39.1223 168.36 38.9799 168.231" fill="#001732"/>
  <path d="M63.0596 169.061H62.4896V166.617H63.0941C63.4698 166.617 63.7591 166.726 63.962 166.942C64.1606 167.158 64.2599 167.452 64.2599 167.829C64.2599 168.65 63.8584 169.061 63.0596 169.061ZM63.0984 165.93H61.6606V169.749H63.0984C63.6597 169.758 64.139 169.58 64.5319 169.221C64.9248 168.862 65.1191 168.395 65.1105 167.816C65.1148 167.249 64.9248 166.795 64.5319 166.444C64.139 166.094 63.6597 165.925 63.0984 165.93Z" fill="#001732"/>
  <path d="M44.1651 190.437H41.147V238.581H44.1651V190.437Z" stroke="#001732" stroke-miterlimit="10"/>
  </g>
  <g clip-path="url(#clip1_1599_109113)">
  <path d="M108.842 104.918H71.647V204.714H108.842V104.918Z" stroke="#001732" stroke-linecap="round" stroke-linejoin="round"/>
  <path d="M112.086 62.6372H68.4028V104.918H112.086V62.6372Z" stroke="#001732" stroke-linecap="round" stroke-linejoin="round"/>
  <path d="M108.842 54.2329H71.647V62.643H108.842V54.2329Z" stroke="#001732" stroke-linecap="round" stroke-linejoin="round"/>
  <path d="M108.842 54.2328H71.647L80.2963 35.0996H100.193L108.842 54.2328Z" stroke="#001732" stroke-linecap="round" stroke-linejoin="round"/>
  <path d="M100.228 29.7466H80.2617V35.0995H100.228V29.7466Z" stroke="#001732" stroke-linecap="round" stroke-linejoin="round"/>
  <path d="M104.422 83.7777C104.422 91.5302 98.0787 97.8118 90.2506 97.8118C82.4225 97.8118 76.0796 91.5302 76.0796 83.7777C76.0796 76.0252 82.4225 69.7437 90.2506 69.7437C98.0787 69.7437 104.422 76.0252 104.422 83.7777Z" stroke="#001732" stroke-linecap="round" stroke-linejoin="round"/>
  <path d="M90.2446 71.9009V84.3544L97.7757 76.9019" stroke="#001732" stroke-linecap="round" stroke-linejoin="round"/>
  <path d="M108.842 138.183H71.647V171.448H108.842V138.183Z" stroke="#001732" stroke-linecap="round" stroke-linejoin="round"/>
  <path d="M100.228 29.7468H80.2617L90.2449 11.2539L100.228 29.7468Z" stroke="#001732" stroke-linecap="round" stroke-linejoin="round"/>
  <path d="M90.2446 0.651855V11.7499" stroke="#001732" stroke-linecap="round" stroke-linejoin="round"/>
  <path d="M107.677 66.9053H72.8179V100.644H107.677V66.9053Z" stroke="#001732" stroke-linecap="round" stroke-linejoin="round"/>
  <path d="M76.6797 56.7534V60.1163" stroke="#001732" stroke-linecap="round" stroke-linejoin="round"/>
  <path d="M80.5586 56.7534V60.1163" stroke="#001732" stroke-linecap="round" stroke-linejoin="round"/>
  <path d="M84.4316 56.7534V60.1163" stroke="#001732" stroke-linecap="round" stroke-linejoin="round"/>
  <path d="M88.311 56.7534V60.1163" stroke="#001732" stroke-linecap="round" stroke-linejoin="round"/>
  <path d="M92.1841 56.7534V60.1163" stroke="#001732" stroke-linecap="round" stroke-linejoin="round"/>
  <path d="M96.0635 56.7534V60.1163" stroke="#001732" stroke-linecap="round" stroke-linejoin="round"/>
  <path d="M99.9365 56.7534V60.1163" stroke="#001732" stroke-linecap="round" stroke-linejoin="round"/>
  <path d="M103.81 56.7534V60.1163" stroke="#001732" stroke-linecap="round" stroke-linejoin="round"/>
  <path d="M77.897 110.848V131.509" stroke="#001732" stroke-linecap="round" stroke-linejoin="round"/>
  <path d="M84.0708 110.848V131.509" stroke="#001732" stroke-linecap="round" stroke-linejoin="round"/>
  <path d="M90.2446 110.848V131.509" stroke="#001732" stroke-linecap="round" stroke-linejoin="round"/>
  <path d="M102.593 110.848V131.509" stroke="#001732" stroke-linecap="round" stroke-linejoin="round"/>
  <path d="M96.4185 110.848V131.509" stroke="#001732" stroke-linecap="round" stroke-linejoin="round"/>
  <path d="M77.897 144.482V165.149" stroke="#001732" stroke-linecap="round" stroke-linejoin="round"/>
  <path d="M84.0708 144.482V165.149" stroke="#001732" stroke-linecap="round" stroke-linejoin="round"/>
  <path d="M90.2446 144.482V165.149" stroke="#001732" stroke-linecap="round" stroke-linejoin="round"/>
  <path d="M102.593 144.482V165.149" stroke="#001732" stroke-linecap="round" stroke-linejoin="round"/>
  <path d="M96.4185 144.482V165.149" stroke="#001732" stroke-linecap="round" stroke-linejoin="round"/>
  <path d="M77.897 178.123V198.784" stroke="#001732" stroke-linecap="round" stroke-linejoin="round"/>
  <path d="M84.0708 178.123V198.784" stroke="#001732" stroke-linecap="round" stroke-linejoin="round"/>
  <path d="M90.2446 178.123V198.784" stroke="#001732" stroke-linecap="round" stroke-linejoin="round"/>
  <path d="M102.593 178.123V198.784" stroke="#001732" stroke-linecap="round" stroke-linejoin="round"/>
  <path d="M96.4185 178.123V198.784" stroke="#001732" stroke-linecap="round" stroke-linejoin="round"/>
  <path d="M77.897 211.763V232.424" stroke="#001732" stroke-linecap="round" stroke-linejoin="round"/>
  <path d="M84.0708 211.763V232.424" stroke="#001732" stroke-linecap="round" stroke-linejoin="round"/>
  <path d="M90.2446 211.763V232.424" stroke="#001732" stroke-linecap="round" stroke-linejoin="round"/>
  <path d="M102.593 211.763V232.424" stroke="#001732" stroke-linecap="round" stroke-linejoin="round"/>
  <path d="M96.4185 211.763V232.424" stroke="#001732" stroke-linecap="round" stroke-linejoin="round"/>
  <path d="M108.842 171.449H71.647V204.714H108.842V171.449Z" stroke="#001732" stroke-linecap="round" stroke-linejoin="round"/>
  <path d="M108.842 204.8H71.647V238.342H108.842V204.8Z" stroke="#001732" stroke-linecap="round" stroke-linejoin="round"/>
  </g>
  <g clip-path="url(#clip2_1599_109113)">
  <path d="M177.937 103.76C176.218 103.43 175.09 101.763 175.418 100.03C175.747 98.3013 177.404 97.1669 179.127 97.4971C180.846 97.8273 181.974 99.4941 181.645 101.227C181.317 102.956 179.656 104.09 177.937 103.76Z" stroke="#001732" stroke-linecap="round" stroke-linejoin="round"/>
  <path d="M159.526 107.113C157.791 107.334 156.204 106.099 155.984 104.351C155.763 102.606 156.992 101.009 158.73 100.788C160.469 100.566 162.052 101.802 162.273 103.55C162.493 105.295 161.26 106.892 159.526 107.113Z" stroke="#001732" stroke-linecap="round" stroke-linejoin="round"/>
  <path d="M143.046 116.025C141.462 116.775 139.573 116.091 138.827 114.499C138.082 112.906 138.762 111.006 140.346 110.256C141.929 109.506 143.818 110.19 144.564 111.783C145.31 113.376 144.63 115.276 143.046 116.025Z" stroke="#001732" stroke-linecap="round" stroke-linejoin="round"/>
  <path d="M130.109 129.62C128.834 130.825 126.829 130.762 125.628 129.48C124.43 128.198 124.492 126.178 125.767 124.973C127.045 123.769 129.05 123.831 130.248 125.113C131.445 126.395 131.384 128.416 130.109 129.62Z" stroke="#001732" stroke-linecap="round" stroke-linejoin="round"/>
  <path d="M121.985 146.575C121.143 148.117 119.215 148.68 117.682 147.833C116.148 146.983 115.588 145.048 116.43 143.505C117.272 141.963 119.2 141.4 120.733 142.247C122.267 143.094 122.827 145.032 121.985 146.575Z" stroke="#001732" stroke-linecap="round" stroke-linejoin="round"/>
  <path d="M119.466 165.22C119.138 166.949 117.477 168.083 115.758 167.753C114.039 167.423 112.911 165.756 113.239 164.023C113.567 162.294 115.228 161.16 116.947 161.49C118.666 161.821 119.795 163.487 119.466 165.22Z" stroke="#001732" stroke-linecap="round" stroke-linejoin="round"/>
  <path d="M122.8 183.737C123.02 185.481 121.788 187.078 120.053 187.299C118.319 187.521 116.731 186.285 116.511 184.537C116.291 182.793 117.519 181.196 119.257 180.974C120.992 180.753 122.58 181.992 122.8 183.737Z" stroke="#001732" stroke-linecap="round" stroke-linejoin="round"/>
  <path d="M131.662 200.315C132.407 201.908 131.727 203.808 130.144 204.558C128.56 205.308 126.671 204.624 125.925 203.031C125.18 201.438 125.859 199.538 127.443 198.788C129.027 198.038 130.916 198.722 131.662 200.315Z" stroke="#001732" stroke-linecap="round" stroke-linejoin="round"/>
  <path d="M145.179 213.323C146.376 214.605 146.314 216.621 145.039 217.83C143.765 219.034 141.76 218.972 140.558 217.69C139.361 216.408 139.423 214.387 140.701 213.183C141.976 211.978 143.981 212.041 145.182 213.323H145.179Z" stroke="#001732" stroke-linecap="round" stroke-linejoin="round"/>
  <path d="M180.575 224.026C182.294 224.357 183.422 226.023 183.094 227.756C182.766 229.485 181.108 230.62 179.386 230.289C177.667 229.959 176.539 228.292 176.867 226.56C177.195 224.831 178.856 223.696 180.575 224.026Z" stroke="#001732" stroke-linecap="round" stroke-linejoin="round"/>
  <path d="M215.47 211.765C217.054 211.015 218.943 211.699 219.685 213.292C220.43 214.885 219.75 216.784 218.166 217.534C216.583 218.284 214.694 217.6 213.948 216.007C213.202 214.414 213.882 212.515 215.466 211.765H215.47Z" stroke="#001732" stroke-linecap="round" stroke-linejoin="round"/>
  <path d="M228.403 198.166C229.678 196.962 231.683 197.024 232.881 198.306C234.078 199.588 234.016 201.609 232.742 202.813C231.467 204.017 229.462 203.955 228.261 202.673C227.063 201.391 227.125 199.371 228.403 198.166Z" stroke="#001732" stroke-linecap="round" stroke-linejoin="round"/>
  <path d="M236.531 181.215C237.373 179.673 239.301 179.11 240.834 179.957C242.368 180.807 242.928 182.742 242.086 184.285C241.244 185.827 239.316 186.39 237.783 185.543C236.249 184.696 235.689 182.758 236.531 181.215Z" stroke="#001732" stroke-linecap="round" stroke-linejoin="round"/>
  <path d="M239.046 162.566C239.374 160.837 241.032 159.703 242.755 160.033C244.474 160.363 245.602 162.03 245.273 163.763C244.945 165.492 243.284 166.626 241.565 166.296C239.846 165.966 238.718 164.299 239.046 162.566Z" stroke="#001732" stroke-linecap="round" stroke-linejoin="round"/>
  <path d="M235.712 144.049C235.492 142.305 236.724 140.708 238.459 140.487C240.193 140.265 241.781 141.501 242.001 143.249C242.221 144.993 240.989 146.59 239.254 146.812C237.52 147.033 235.932 145.794 235.712 144.049Z" stroke="#001732" stroke-linecap="round" stroke-linejoin="round"/>
  <path d="M226.854 127.475C226.109 125.882 226.789 123.982 228.372 123.232C229.956 122.483 231.845 123.166 232.591 124.759C233.336 126.352 232.657 128.252 231.073 129.002C229.489 129.752 227.6 129.068 226.858 127.475H226.854Z" stroke="#001732" stroke-linecap="round" stroke-linejoin="round"/>
  <path d="M213.334 114.464C212.136 113.182 212.198 111.165 213.473 109.957C214.748 108.752 216.753 108.815 217.954 110.097C219.151 111.379 219.09 113.399 217.811 114.604C216.536 115.808 214.531 115.746 213.334 114.464Z" stroke="#001732" stroke-linecap="round" stroke-linejoin="round"/>
  <path d="M196.479 106.293C194.946 105.446 194.386 103.507 195.228 101.965C196.07 100.422 197.998 99.8591 199.531 100.706C201.065 101.557 201.625 103.492 200.783 105.034C199.941 106.577 198.013 107.14 196.479 106.293Z" stroke="#001732" stroke-linecap="round" stroke-linejoin="round"/>
  <path d="M195.579 218.206C190.414 219.791 184.933 220.642 179.254 220.642C173.575 220.642 168.071 219.787 162.898 218.198" stroke="#001732" stroke-linecap="round" stroke-linejoin="round"/>
  <path d="M155.879 215.506C136.687 206.605 123.372 187.086 123.372 164.435C123.368 133.392 148.392 108.228 179.258 108.228C210.123 108.228 235.144 133.392 235.144 164.435C235.144 187.105 221.797 206.64 202.579 215.529" stroke="#001732" stroke-linecap="round" stroke-linejoin="round"/>
  <path d="M131.704 179.813C130.155 174.968 129.321 169.797 129.321 164.435C129.321 147.387 137.765 132.324 150.672 123.248" stroke="#001732" stroke-linecap="round" stroke-linejoin="round"/>
  <path d="M158.189 209.985C153.546 207.81 149.289 204.935 145.557 201.5" stroke="#001732" stroke-linecap="round" stroke-linejoin="round"/>
  <path d="M194.023 212.429C189.356 213.878 184.396 214.663 179.254 214.663C174.113 214.663 169.28 213.901 164.667 212.487" stroke="#001732" stroke-linecap="round" stroke-linejoin="round"/>
  <path d="M228.72 171.386C226.364 188.5 215.439 202.856 200.439 209.931" stroke="#001732" stroke-linecap="round" stroke-linejoin="round"/>
  <path d="M223.872 141.851C227.275 148.642 229.191 156.311 229.191 164.435" stroke="#001732" stroke-linecap="round" stroke-linejoin="round"/>
  <path d="M159.128 118.458C165.286 115.727 172.096 114.211 179.258 114.211C193.238 114.211 205.882 119.989 214.945 129.305" stroke="#001732" stroke-linecap="round" stroke-linejoin="round"/>
  <path d="M179.258 157.916V114.211" stroke="#001732" stroke-linecap="round" stroke-linejoin="round"/>
  <path d="M177.415 158.192L163.991 116.644" stroke="#001732" stroke-linecap="round" stroke-linejoin="round"/>
  <path d="M175.708 158.98L150.22 123.699" stroke="#001732" stroke-linecap="round" stroke-linejoin="round"/>
  <path d="M174.344 160.301L155.392 146.454L146.132 139.69L139.291 134.69" stroke="#001732" stroke-linecap="round" stroke-linejoin="round"/>
  <path d="M173.552 162.03L132.276 148.541" stroke="#001732" stroke-linecap="round" stroke-linejoin="round"/>
  <path d="M173.29 163.895H129.858" stroke="#001732" stroke-linecap="round" stroke-linejoin="round"/>
  <path d="M173.533 165.764L132.276 179.245" stroke="#001732" stroke-linecap="round" stroke-linejoin="round"/>
  <path d="M174.417 167.431L139.291 193.096" stroke="#001732" stroke-linecap="round" stroke-linejoin="round"/>
  <path d="M172.56 173.165L150.22 204.087" stroke="#001732" stroke-linecap="round" stroke-linejoin="round"/>
  <path d="M179.258 169.901V213.575" stroke="#001732" stroke-linecap="round" stroke-linejoin="round"/>
  <path d="M185.706 172.819L208.293 204.087" stroke="#001732" stroke-linecap="round" stroke-linejoin="round"/>
  <path d="M184.013 167.369L219.221 193.096" stroke="#001732" stroke-linecap="round" stroke-linejoin="round"/>
  <path d="M185.064 165.713L209.737 173.853L216.992 176.223L226.24 179.246" stroke="#001732" stroke-linecap="round" stroke-linejoin="round"/>
  <path d="M185.28 163.895H228.658" stroke="#001732" stroke-linecap="round" stroke-linejoin="round"/>
  <path d="M184.991 162.019L210.541 153.669L226.24 148.541" stroke="#001732" stroke-linecap="round" stroke-linejoin="round"/>
  <path d="M184.067 160.379L219.221 134.69" stroke="#001732" stroke-linecap="round" stroke-linejoin="round"/>
  <path d="M182.758 159.046L208.292 123.699" stroke="#001732" stroke-linecap="round" stroke-linejoin="round"/>
  <path d="M181.131 158.087L191.527 125.914L194.521 116.644" stroke="#001732" stroke-linecap="round" stroke-linejoin="round"/>
  <path d="M211.642 238.557L183.762 167.777C184.655 166.728 185.215 165.383 185.215 163.895C185.215 160.585 182.546 157.9 179.254 157.9C175.963 157.9 173.294 160.585 173.294 163.895C173.294 165.383 173.854 166.731 174.746 167.78L146.867 238.561H156.559L177.659 169.649C178.169 169.793 178.698 169.894 179.254 169.894C179.811 169.894 180.34 169.793 180.85 169.649L201.949 238.565H211.642V238.557Z" stroke="#001732" stroke-miterlimit="10"/>
  </g>
  </g>
  <defs>
  <clipPath id="clip0_1599_109113">
  <rect width="50.8108" height="94" fill="white" transform="translate(16.9336 145)"/>
  </clipPath>
  <clipPath id="clip1_1599_109113">
  <rect width="45" height="239" fill="white" transform="translate(67.7446)"/>
  </clipPath>
  <clipPath id="clip2_1599_109113">
  <rect width="133.023" height="142" fill="white" transform="translate(112.745 97)"/>
  </clipPath>
  </defs>
  </svg>
